<svg xmlns="http://www.w3.org/2000/svg" xmlns:xlink="http://www.w3.org/1999/xlink" viewBox="0 0 220 447.87"><defs><linearGradient id="a" x1="118.25" y1="433.66" x2="100.75" y2="403.34" gradientUnits="userSpaceOnUse"><stop offset="0" stop-color="#9e9fa1"/><stop offset="0.11" stop-color="#b6b7b9"/><stop offset="0.25" stop-color="#cdced0"/><stop offset="0.34" stop-color="#d5d6d9"/><stop offset="0.64" stop-color="#d5d6d9"/><stop offset="0.74" stop-color="#c9cacc"/><stop offset="0.95" stop-color="#a8a9ab"/><stop offset="1" stop-color="#9e9fa1"/></linearGradient></defs><title>iPhone 6 Flat Mockup - Silver</title><path d="M717.17,191.09v29.68a0.91,0.91,0,0,0,.85,1h1.13a0.91,0.91,0,0,0,.85-1V191.09a0.91,0.91,0,0,0-.85-1H718A0.91,0.91,0,0,0,717.17,191.09Z" transform="translate(-500 -96.13)" style="fill:#d5d6d9"/><rect x="215" y="406" width="3" height="7.84" style="fill:#bcbcbc"/><rect x="215" y="32" width="3" height="7.84" style="fill:#bcbcbc"/><path d="M685.6,96.13H532.83a31.91,31.91,0,0,0-31.83,32V512a31.91,31.91,0,0,0,31.83,32H685.6c17.58,0,31.83-14.32,32.4-32V128.12C717.43,110.45,703.18,96.13,685.6,96.13Zm27.15,413.53a28.72,28.72,0,0,1-28.65,28.79H534.52a28.72,28.72,0,0,1-28.65-28.79V129a28.72,28.72,0,0,1,28.65-28.79H684.11A28.72,28.72,0,0,1,712.75,129V509.66Z" transform="translate(-500 -96.13)" style="fill:#d5d6d9"/><path d="M683.82,541.08H534.28a30,30,0,0,1-30-30V129.17a30,30,0,0,1,30-30H683.82A31.18,31.18,0,0,1,715,130.31V509.9A31.18,31.18,0,0,1,683.82,541.08Z" transform="translate(-500 -96.13)" style="fill:#f7f7f7"/><rect x="13.24" y="55" width="192.76" height="335.86" style="fill:#29abe2"/><circle cx="109.5" cy="418.5" r="17.5" style="fill:url(#a)"/><circle cx="109.5" cy="418.5" r="15.5" style="fill:#f7f7f7"/><ellipse cx="109" cy="15.01" rx="3" ry="2.99" style="fill:#3c3e42"/><path d="M624.46,126.12H594.52a2.41,2.41,0,0,1-2.41-2.41h0a2.41,2.41,0,0,1,2.41-2.41h29.94a2.41,2.41,0,0,1,2.41,2.41h0A2.41,2.41,0,0,1,624.46,126.12Z" transform="translate(-500 -96.13)" style="fill:#3c3e42"/><rect y="56.26" width="3.2" height="19.19" rx="0.96" ry="0.96" style="fill:#d5d6d9"/><rect y="95.76" width="3.2" height="32.73" rx="0.96" ry="0.96" style="fill:#d5d6d9"/><rect y="136.39" width="3.2" height="32.73" rx="0.96" ry="0.96" style="fill:#d5d6d9"/><rect x="1" y="408" width="3" height="7.84" style="fill:#bcbcbc"/><rect x="1" y="34" width="3" height="7.84" style="fill:#bcbcbc"/><rect x="215" y="408" width="3" height="7.84" style="fill:#bcbcbc"/><rect x="215" y="34" width="3" height="7.84" style="fill:#bcbcbc"/><circle cx="76" cy="28" r="4" style="fill:#3c3e42"/></svg>